<?xml version="1.0" standalone="no"?><!DOCTYPE svg PUBLIC "-//W3C//DTD SVG 1.1//EN" "http://www.w3.org/Graphics/SVG/1.1/DTD/svg11.dtd"><svg t="1575358207276" class="icon" viewBox="0 0 1024 1024" version="1.1" xmlns="http://www.w3.org/2000/svg" p-id="4988" xmlns:xlink="http://www.w3.org/1999/xlink" width="200" height="200"><defs><style type="text/css"></style></defs><path d="M991.996 720.778l-0.378-29.002-28.796-2.556c-30.826-2.792-87.6-14.438-108.602-33.8-32.562-30.022-71.376-72.398-71.376-103.786 0-2.028 0-5.092 8.3-10.372 9.97-6.348 25.178-11.168 38.594-15.42 10.434-3.308 20.288-6.434 28.788-10.472 18.472-8.78 36.996-31.956 34.942-57.614-2.43-30.332-28.848-54.092-60.144-54.092-8.042 0-16.136 1.52-24.054 4.518-16.054 6.082-27.486 8.82-35.41 9.924 1.494-18.638 3.582-40.24 6.422-61.34 10.222-75.896-10.562-147.018-58.528-202.084C670.996 96.416 594.752 64 512.566 64H512c-82.186 0-158.43 32.416-209.182 90.682-47.964 55.068-68.75 126.69-58.53 202.584 2.832 21.02 4.92 42.462 6.42 61.236-7.94-1.118-19.372-3.996-35.406-10.068-7.93-3.004-16.034-4.59-24.086-4.59-31.282-0.002-57.688 23.704-60.114 54.006-2.054 25.636 16.47 48.786 34.94 57.566 8.502 4.04 18.362 7.156 28.8 10.464 13.414 4.25 28.618 9.064 38.586 15.406 8.294 5.278 8.294 8.336 8.294 10.364 0 17.32-12.382 49.382-71.376 103.776-20.998 19.362-78.11 31.002-109.176 33.794l-29.144 2.622L32 721.206c0 3.358 0.624 21.092 12.97 40.638 10.492 16.612 32.146 38.566 75.726 48.814a2279.426 2279.426 0 0 0 30.416 6.908c4.612 1.024 9.11 2.02 12.908 2.906l0.162 1.246c1.8 14.008 3.222 25.07 8.784 35.5 4.906 9.2 17.148 24.632 44.03 24.632 4.956 0 10.498-0.492 16.944-1.502 3.344-0.526 6.772-1.108 10.4-1.726 14.232-2.424 30.364-5.174 46.902-5.174 20.554 0 37.464 4.376 51.692 13.376 9.062 5.734 17.784 11.944 27.018 18.52C405.934 930.962 446.716 960 512 960c65.452 0 106.586-29.164 142.878-54.892 9.152-6.488 17.796-12.618 26.754-18.284 14.226-9 31.136-13.376 51.692-13.376 16.54 0 32.668 2.75 46.898 5.172 3.628 0.622 7.058 1.204 10.404 1.728 6.446 1.01 11.986 1.502 16.944 1.502 26.88 0 39.124-15.43 44.03-24.626 5.562-10.428 6.984-21.492 8.784-35.498l0.164-1.258c3.796-0.882 8.296-1.882 12.91-2.904 8.046-1.784 18.058-4.002 30.412-6.908 43.702-10.278 65.222-32.34 75.58-49.036 12.194-19.656 12.592-37.472 12.546-40.842zM416 256c17.672 0 32 21.49 32 48s-14.328 48-32 48-32-21.49-32-48 14.328-48 32-48z m207.23 155.396C592.736 441.45 553.234 458 512 458c-41.676 0-81.208-16.58-111.314-46.686a16 16 0 1 1 22.626-22.626C447.376 412.748 478.872 426 512 426c32.774 0 64.3-13.28 88.77-37.396a16 16 0 0 1 22.46 22.792zM608 352c-17.672 0-32-21.492-32-48s14.328-48 32-48 32 21.492 32 48-14.328 48-32 48z" fill="" p-id="4989"></path></svg>